<?xml version="1.0" standalone="no"?>
<!DOCTYPE svg PUBLIC "-//W3C//DTD SVG 20010904//EN"
 "http://www.w3.org/TR/2001/REC-SVG-20010904/DTD/svg10.dtd">
<svg version="1.0" xmlns="http://www.w3.org/2000/svg"
 width="956.000000pt" height="949.000000pt" viewBox="0 0 956.000000 949.000000"
 preserveAspectRatio="xMidYMid meet">

<g transform="translate(0.000000,949.000000) scale(0.100000,-0.100000)"
fill="#000000" stroke="none">
<path d="M0 4745 l0 -4745 4780 0 4780 0 0 4745 0 4745 -4780 0 -4780 0 0
-4745z m5935 4015 c248 -63 419 -226 433 -411 7 -105 -15 -134 -108 -141 l-35
-3 -1 -123 c0 -128 -5 -144 -45 -147 -16 -1 -23 -9 -24 -25 -1 -13 -9 -28 -18
-35 -10 -7 -17 -17 -17 -23 0 -6 -10 -19 -22 -29 -13 -10 -33 -40 -46 -66 -12
-26 -29 -50 -38 -54 -8 -3 -44 4 -80 16 -43 14 -89 21 -137 20 -119 -1 -163
-12 -203 -50 -61 -58 -68 -80 -60 -195 8 -133 27 -200 83 -303 82 -151 126
-185 388 -299 208 -91 242 -101 419 -117 130 -13 154 -18 199 -43 72 -41 117
-108 117 -174 0 -63 -13 -88 -47 -88 -15 0 -36 -11 -50 -26 -22 -23 -30 -25
-88 -22 -35 1 -68 -2 -74 -7 -5 -6 -16 -48 -25 -94 -21 -112 -47 -164 -125
-242 -103 -103 -212 -154 -249 -117 -24 24 -12 46 41 77 135 77 192 160 192
278 0 77 -13 106 -69 147 -52 39 -298 32 -364 -10 -26 -17 -25 -28 10 -106 12
-26 30 -50 40 -54 23 -7 23 -30 1 -42 -15 -9 -11 -22 37 -128 29 -66 61 -130
72 -143 10 -13 16 -32 13 -41 -3 -9 11 -56 30 -104 28 -67 33 -91 25 -102 -9
-10 -3 -30 25 -86 21 -40 39 -75 40 -77 2 -1 32 6 67 18 229 75 523 86 751 26
265 -69 523 -242 689 -464 81 -107 177 -310 220 -466 29 -104 35 -319 14 -465
-60 -409 -329 -769 -699 -940 -195 -89 -347 -123 -552 -124 -229 0 -388 39
-597 146 -314 161 -525 440 -619 818 -20 81 -23 121 -23 270 -1 106 4 204 13
250 19 106 74 268 121 358 88 169 255 354 416 458 l85 56 -90 171 c-49 95 -93
172 -97 172 -8 0 -324 -370 -559 -655 -88 -107 -242 -293 -342 -414 -101 -121
-183 -225 -183 -231 0 -16 104 -78 232 -140 123 -59 158 -89 158 -135 0 -37
-22 -54 -62 -46 -20 3 -40 0 -51 -8 -12 -9 -29 -11 -60 -5 -39 7 -44 5 -64
-20 -22 -28 -23 -28 -174 -35 -84 -4 -156 -9 -161 -12 -4 -3 -8 -20 -8 -38 0
-58 -78 -145 -161 -180 -42 -17 -154 -36 -454 -76 -126 -17 -235 -36 -242 -41
-7 -6 -28 -40 -48 -75 -104 -186 -306 -368 -520 -470 -185 -87 -321 -118 -525
-118 -340 0 -636 120 -871 354 -137 137 -228 286 -293 480 -54 163 -66 239
-66 417 0 187 10 254 55 390 61 183 158 342 288 473 163 164 408 293 672 351
90 20 340 17 445 -5 180 -37 344 -107 477 -203 41 -29 76 -53 78 -53 2 0 76
79 165 175 l161 175 -26 87 c-15 49 -65 212 -112 363 -85 274 -86 275 -138
335 -41 46 -63 63 -97 72 -52 15 -193 96 -201 116 -3 8 3 32 14 52 18 32 19
44 10 87 -15 70 -14 184 4 251 19 75 47 127 102 196 24 31 55 82 67 113 46
114 121 190 376 383 312 237 686 392 1055 440 143 18 238 19 356 3 123 -16
184 -2 246 57 34 33 44 48 38 62 -31 73 -38 107 -39 193 -1 83 2 101 24 145
42 84 118 113 301 114 85 1 137 -4 194 -19z m-3787 -5905 c34 -8 79 -24 100
-34 104 -54 148 -168 103 -266 -21 -46 -39 -64 -99 -98 -47 -27 -47 -27 13
-46 50 -16 112 -57 138 -93 25 -34 34 -130 17 -182 -15 -46 -88 -110 -154
-135 -98 -36 -191 -42 -646 -39 l-435 3 -3 453 -2 452 452 0 c365 0 465 -3
516 -15z m772 -440 l0 -455 -180 0 -180 0 0 455 0 455 180 0 180 0 0 -455z
m570 290 c0 -91 3 -165 8 -165 4 0 95 74 202 165 l195 165 233 0 c127 0 232
-3 231 -7 0 -5 -103 -93 -229 -198 -126 -104 -229 -193 -229 -196 -1 -9 128
-133 342 -330 97 -89 177 -166 177 -171 0 -4 -105 -8 -234 -8 l-234 0 -160
167 -160 167 -71 -57 -71 -58 0 -110 0 -109 -177 2 -178 3 -3 440 c-1 242 0
446 3 453 3 9 49 12 180 12 l175 0 0 -165z m2090 55 l0 -110 -352 -2 -353 -3
-3 -62 -3 -63 333 -2 333 -3 0 -95 0 -95 -332 -3 -333 -2 0 -65 0 -65 355 0
356 0 -3 -112 -3 -113 -532 -3 -533 -2 0 455 0 455 535 0 535 0 0 -110z m1175
-345 l0 -450 -172 -3 -173 -2 0 455 0 455 173 -2 172 -3 0 -450z m1285 330 l0
-125 -190 0 -190 0 0 -330 0 -330 -180 0 -180 0 0 330 0 330 -187 2 -188 3 -3
123 -3 122 561 0 560 0 0 -125z m-1810 -360 l0 -105 -245 0 -245 0 0 105 0
105 245 0 245 0 0 -105z m-500 -1210 l0 -345 -45 0 -45 0 0 345 0 345 45 0 45
0 0 -345z m215 335 c33 -13 48 -52 33 -85 -21 -47 -101 -46 -119 2 -16 43 3
74 58 92 1 1 13 -3 28 -9z m-4055 -85 l0 -44 -132 -3 -133 -3 0 -90 0 -90 113
-3 112 -3 0 -39 0 -40 -115 0 -114 0 -3 -142 -3 -143 -42 -2 -43 -2 0 325 0
324 180 0 180 0 0 -45z m2967 30 c68 -20 143 -88 174 -157 19 -44 23 -70 23
-148 0 -81 -4 -103 -25 -150 -36 -77 -71 -115 -137 -147 -54 -26 -64 -28 -192
-28 l-135 0 -3 323 -2 322 123 0 c81 0 141 -5 174 -15z m-1927 -100 l0 -55 71
0 70 0 -3 -42 -3 -43 -67 -3 -68 -3 0 -139 c0 -163 5 -173 79 -168 l46 2 3
-42 3 -42 -66 0 c-39 0 -78 6 -95 15 -52 27 -60 57 -60 225 l0 150 -34 0 c-31
0 -34 3 -39 37 -8 45 -3 53 34 53 29 0 29 1 29 55 l0 55 50 0 50 0 0 -55z
m1190 0 l0 -54 68 -3 67 -3 3 -34 c4 -43 -8 -51 -80 -51 l-58 0 0 -139 c0
-164 5 -174 79 -170 l46 3 0 -39 0 -40 -69 -3 c-75 -3 -103 8 -133 55 -15 22
-19 57 -23 183 l-5 155 -27 3 c-25 3 -28 7 -28 42 0 36 2 39 33 42 31 3 32 4
35 56 l3 52 45 0 44 0 0 -55z m-1896 -73 c16 -9 38 -30 50 -45 19 -26 21 -44
24 -218 l3 -189 -45 0 c-43 0 -46 2 -46 27 l0 27 -27 -26 c-89 -84 -228 -44
-248 71 -12 73 33 124 135 156 144 45 135 40 133 71 -3 36 -36 64 -74 64 -15
0 -54 -10 -85 -21 l-58 -22 -18 23 c-10 12 -18 26 -18 31 0 12 86 60 123 70
43 10 115 1 151 -19z m423 7 c45 -14 54 -28 38 -65 l-13 -31 -55 13 c-44 12
-61 12 -93 2 -40 -14 -54 -39 -35 -62 6 -7 45 -26 87 -41 50 -18 90 -41 116
-66 39 -37 40 -40 36 -91 -5 -43 -11 -57 -40 -84 -74 -67 -222 -65 -300 3 -16
14 -16 18 -3 44 21 40 26 41 80 14 63 -32 115 -32 151 -1 27 23 27 24 11 49
-10 16 -42 34 -89 52 -129 49 -174 103 -148 180 28 83 138 119 257 84z m768 2
c46 -21 79 -54 94 -92 8 -22 15 -104 12 -146 -1 -10 -39 -13 -157 -13 l-156 0
6 -32 c7 -37 38 -73 80 -95 29 -15 123 -14 173 2 16 5 22 2 26 -12 3 -10 8
-28 12 -40 5 -18 0 -23 -31 -33 -59 -20 -172 -16 -224 7 -54 23 -103 77 -121
130 -18 56 -17 151 4 204 43 112 176 169 282 120z m1993 4 c77 -33 121 -102
122 -191 0 -50 -1 -52 -31 -58 -17 -3 -87 -6 -155 -6 -122 0 -124 0 -124 -22
0 -36 34 -83 73 -101 44 -21 116 -22 164 -2 19 8 37 15 38 15 4 0 25 -61 25
-72 0 -20 -77 -41 -151 -41 -126 -1 -207 56 -238 168 -54 194 111 379 277 310z
m1377 4 c51 -14 110 -73 124 -124 16 -60 14 -122 -5 -129 -9 -3 -81 -6 -161
-6 l-145 0 7 -27 c17 -72 73 -113 153 -113 29 0 69 7 88 15 l35 14 15 -34 c8
-19 14 -37 14 -40 0 -16 -82 -37 -145 -38 -161 -4 -255 86 -255 243 0 73 17
123 59 171 59 70 130 92 216 68z m494 2 c12 -8 13 -18 5 -48 -9 -36 -11 -38
-56 -43 -47 -6 -79 -27 -101 -65 -7 -11 -14 -84 -17 -169 l-5 -150 -40 0 -40
-1 -3 238 -2 237 40 0 c39 0 40 0 40 -37 l0 -37 33 31 c48 48 111 66 146 44z
m-3428 -17 c38 -16 40 -19 35 -48 -9 -43 -19 -50 -57 -37 -73 25 -155 6 -147
-35 3 -19 12 -25 143 -86 56 -27 74 -40 88 -70 63 -129 -101 -236 -268 -176
-64 24 -79 54 -47 96 l18 23 44 -25 c52 -30 114 -34 148 -10 46 32 24 65 -68
103 -117 49 -150 84 -150 159 0 46 29 88 74 108 43 18 137 17 187 -2z m2109
-218 l0 -235 -22 -3 c-13 -2 -35 -1 -50 1 l-28 3 0 227 c0 125 3 231 7 234 3
4 26 7 50 7 l43 0 0 -234z m235 49 c33 -101 62 -182 65 -179 3 3 32 85 65 182
l60 177 48 3 c28 2 47 -1 47 -7 0 -16 -161 -444 -172 -458 -11 -13 -96 -10
-109 4 -4 5 -23 53 -42 108 -19 55 -56 157 -81 228 l-45 127 52 0 53 0 59
-185z m1271 20 c29 -88 55 -169 58 -180 4 -13 27 42 67 163 l61 182 49 0 c27
0 49 -3 49 -7 -1 -24 -204 -544 -227 -581 -34 -55 -82 -82 -145 -82 l-48 0 0
40 c0 39 1 40 34 40 57 0 125 74 113 124 -3 11 -39 113 -81 226 -42 113 -76
213 -76 223 0 15 7 18 47 15 l47 -3 52 -160z"/>
<path d="M5033 7344 c-67 -44 -138 -71 -245 -95 -64 -14 -121 -36 -210 -83
-68 -35 -156 -77 -195 -92 -40 -16 -73 -32 -73 -36 0 -4 54 -44 119 -88 333
-228 588 -477 636 -621 13 -39 16 -69 11 -120 l-6 -69 32 6 c269 49 589 122
624 142 9 5 6 22 -12 66 -33 80 -45 153 -29 170 7 7 38 18 69 25 31 7 56 16
56 19 0 4 -35 20 -77 36 -247 90 -368 226 -573 643 -36 73 -67 133 -70 132 -3
0 -28 -16 -57 -35z"/>
<path d="M3710 6278 c0 -17 131 -411 140 -421 4 -4 60 5 125 20 l119 28 -89
100 c-98 109 -250 260 -277 276 -13 7 -18 6 -18 -3z"/>
<path d="M4480 6200 c0 -16 67 -86 75 -78 4 4 -1 17 -11 30 -23 31 -64 62 -64
48z"/>
<path d="M5580 6064 c-96 -25 -260 -62 -363 -83 -103 -21 -192 -42 -197 -47
-9 -9 -74 -194 -231 -654 -94 -277 -153 -534 -124 -542 6 -2 126 137 269 307
142 171 392 470 555 665 282 338 327 402 282 399 -9 -1 -95 -21 -191 -45z"/>
<path d="M3963 5713 c-68 -16 -73 -24 -53 -78 12 -30 13 -30 101 48 59 52 56
54 -48 30z"/>
<path d="M3655 5439 c-71 -78 -131 -147 -133 -154 -4 -16 49 -59 58 -48 4 4
62 67 129 140 l121 131 -17 36 c-9 20 -19 36 -22 36 -3 0 -64 -64 -136 -141z"/>
<path d="M4330 5424 c-140 -86 -269 -187 -270 -211 0 -44 167 -563 181 -563
24 0 50 23 65 58 21 51 71 349 89 541 8 87 18 173 21 190 4 17 2 31 -3 31 -5
0 -42 -21 -83 -46z"/>
<path d="M6495 5465 c-5 -2 -29 -9 -52 -15 l-41 -10 88 -350 c79 -313 126
-460 146 -460 3 0 4 15 0 33 -3 17 -19 182 -36 365 -40 445 -39 437 -70 439
-14 1 -29 0 -35 -2z"/>
<path d="M6574 5443 c6 -29 34 -308 61 -610 15 -169 21 -203 34 -203 4 0 13
98 20 218 7 119 19 296 27 392 7 96 14 187 14 203 l0 27 -81 0 -81 0 6 -27z"/>
<path d="M6746 5446 c-3 -11 -14 -174 -26 -361 -11 -187 -23 -370 -27 -407 -3
-43 -2 -68 5 -68 5 0 12 10 14 23 3 12 51 196 107 408 55 212 101 388 101 391
0 3 -26 10 -57 16 -111 21 -113 21 -117 -2z"/>
<path d="M2570 5448 c0 -26 50 -690 56 -753 8 -78 21 -92 28 -33 15 133 68
701 69 743 l2 50 -77 3 c-59 2 -78 0 -78 -10z"/>
<path d="M2450 5436 c-31 -8 -44 -16 -41 -26 1 -8 36 -162 77 -343 121 -542
138 -574 111 -208 -9 119 -22 300 -29 404 l-12 187 -30 -1 c-17 0 -51 -6 -76
-13z"/>
<path d="M2746 5428 c-3 -13 -14 -120 -26 -238 -11 -118 -27 -278 -35 -355 -8
-77 -15 -152 -15 -167 0 -31 15 -38 23 -10 143 474 225 757 222 760 -7 7 -118
32 -142 32 -15 0 -24 -7 -27 -22z"/>
<path d="M6318 5408 c-27 -11 -48 -25 -48 -30 0 -27 276 -645 285 -637 8 9
-168 689 -179 689 -6 -1 -32 -10 -58 -22z"/>
<path d="M6936 5422 c-3 -4 -30 -107 -60 -228 -31 -120 -78 -302 -106 -404
-54 -203 -54 -200 -41 -200 7 0 361 766 361 782 0 4 -24 15 -52 26 -82 30 -96
33 -102 24z"/>
<path d="M2311 5395 c-35 -13 -67 -27 -72 -32 -4 -4 1 -28 11 -53 94 -224 267
-625 288 -665 15 -30 27 -44 29 -34 2 8 -16 103 -41 210 -25 107 -63 277 -86
379 -46 211 -49 220 -58 219 -4 0 -36 -11 -71 -24z"/>
<path d="M2920 5368 c-12 -42 -136 -467 -183 -623 -45 -147 -21 -116 119 155
59 113 134 257 168 320 33 63 63 118 64 122 4 10 -116 68 -140 68 -12 0 -21
-13 -28 -42z"/>
<path d="M7081 5308 c-332 -735 -329 -728 -317 -728 2 0 82 116 177 258 94
141 203 301 242 356 55 77 67 100 56 108 -8 5 -40 22 -72 39 l-58 30 -28 -63z"/>
<path d="M2141 5316 c-29 -19 -55 -37 -58 -40 -7 -6 136 -235 383 -614 54 -81
88 -104 60 -39 -8 18 -42 97 -76 177 -35 80 -100 235 -146 345 -45 110 -89
201 -96 202 -7 2 -37 -13 -67 -31z"/>
<path d="M2964 5073 c-75 -148 -150 -292 -166 -322 -16 -29 -27 -55 -25 -58
10 -9 142 137 346 382 111 134 138 172 128 182 -15 15 -128 83 -138 83 -4 0
-69 -120 -145 -267z"/>
<path d="M6120 5318 c0 -15 111 -180 117 -174 9 9 -88 186 -102 186 -8 0 -15
-5 -15 -12z"/>
<path d="M6030 5259 c-36 -27 -65 -54 -65 -59 0 -10 356 -389 441 -470 l47
-45 -98 190 c-75 144 -248 436 -259 435 0 0 -30 -23 -66 -51z"/>
<path d="M7157 5128 c-208 -306 -376 -562 -372 -567 3 -2 60 54 127 125 67 71
183 192 258 269 74 77 155 161 179 186 l43 47 -58 46 c-33 25 -62 46 -66 46
-4 0 -54 -69 -111 -152z"/>
<path d="M1996 5208 l-57 -53 111 -120 c61 -66 183 -200 272 -297 89 -98 167
-178 174 -178 13 0 -68 135 -245 410 -48 74 -109 170 -135 213 -27 42 -51 77
-55 77 -4 0 -33 -24 -65 -52z"/>
<path d="M3155 5094 c-153 -186 -160 -198 -88 -136 97 83 236 239 229 257 -3
8 -11 15 -18 14 -7 0 -62 -61 -123 -135z"/>
<path d="M5892 5137 c-28 -29 -52 -57 -52 -62 1 -6 96 -80 213 -165 116 -85
257 -191 312 -235 55 -45 106 -84 113 -89 26 -16 10 15 -36 71 -42 49 -366
398 -466 501 l-32 32 -52 -53z"/>
<path d="M7105 4864 c-159 -168 -291 -309 -293 -315 -8 -21 22 -2 188 122 96
71 250 184 343 251 92 66 167 124 167 129 0 16 -96 119 -110 118 -3 -1 -135
-138 -295 -305z"/>
<path d="M3865 5089 c-37 -35 -80 -82 -96 -105 l-29 -43 31 -83 c17 -46 41
-123 54 -173 27 -106 20 -102 188 -104 96 -1 107 1 107 16 0 21 -169 534 -180
546 -4 5 -38 -20 -75 -54z"/>
<path d="M1876 5093 c-48 -50 -55 -69 -32 -87 58 -46 587 -446 609 -460 15
-10 27 -14 27 -8 0 5 -96 113 -212 239 -117 126 -240 259 -272 296 -33 37 -63
67 -67 67 -3 0 -27 -21 -53 -47z"/>
<path d="M3289 5043 c-92 -95 -309 -336 -348 -387 -13 -17 -45 -52 -70 -78
-24 -26 -42 -50 -40 -53 3 -3 37 22 75 55 38 33 124 105 191 160 124 102 143
123 143 159 0 15 29 40 106 91 l105 71 -24 32 c-13 18 -31 33 -39 35 -7 1 -52
-37 -99 -85z"/>
<path d="M5785 5006 c-20 -31 -38 -62 -41 -69 -3 -10 68 -52 228 -137 128 -67
291 -154 362 -192 71 -38 134 -67 140 -65 20 8 -87 98 -364 306 -151 113 -278
207 -282 209 -4 2 -23 -22 -43 -52z"/>
<path d="M7445 4977 c-339 -249 -602 -442 -609 -449 -5 -4 -6 -11 -2 -15 7 -8
775 377 776 389 0 17 -72 128 -83 127 -7 0 -43 -23 -82 -52z"/>
<path d="M1773 4958 c-18 -29 -35 -60 -38 -68 -4 -11 81 -59 347 -198 194
-100 362 -185 373 -188 36 -11 -20 36 -255 212 -124 92 -259 196 -301 231 -43
35 -81 63 -86 63 -5 0 -23 -24 -40 -52z"/>
<path d="M5706 4858 c-13 -29 -27 -63 -30 -75 -7 -24 -30 -15 284 -114 91 -28
239 -78 329 -111 90 -32 166 -57 168 -54 10 10 -80 63 -332 196 -148 78 -298
158 -333 177 l-62 35 -24 -54z"/>
<path d="M7228 4684 c-214 -107 -388 -199 -388 -205 0 -6 8 -8 18 -5 9 3 112
35 227 71 116 36 262 81 325 100 271 80 275 81 272 101 -5 27 -54 134 -61 133
-3 0 -180 -88 -393 -195z"/>
<path d="M1699 4813 c-43 -100 -71 -82 338 -220 199 -66 377 -124 395 -128 63
-14 12 21 -160 111 -257 134 -547 284 -550 284 -1 0 -12 -21 -23 -47z"/>
<path d="M3119 4739 c-105 -82 -269 -230 -269 -242 0 -10 134 59 211 108 78
50 109 68 109 61 0 -3 -21 -19 -46 -36 -25 -18 -44 -34 -42 -35 2 -2 46 7 98
20 92 25 129 30 118 19 -3 -3 -56 -19 -118 -35 -62 -17 -134 -44 -160 -60 -48
-30 -65 -36 -56 -20 11 17 -31 0 -60 -26 l-29 -25 38 21 c46 25 54 26 36 5
-12 -15 -11 -16 6 -11 29 9 235 44 338 57 48 7 89 15 92 19 2 4 -13 25 -33 47
-21 21 -48 54 -60 72 -28 39 -39 40 -52 7 -5 -14 -14 -25 -20 -25 -17 0 -12
14 16 44 25 26 25 29 10 44 -15 16 -17 15 -22 -3 -5 -18 -34 -40 -113 -85 -15
-8 -57 -32 -94 -54 -71 -40 -106 -45 -40 -5 28 16 213 147 261 185 2 1 0 10
-5 19 -8 14 -25 4 -114 -66z"/>
<path d="M5660 4733 c0 -5 -7 -41 -15 -82 -9 -40 -14 -75 -13 -77 7 -6 138
-24 363 -49 267 -29 381 -43 413 -50 12 -3 22 -1 22 3 0 14 -241 102 -507 186
-245 77 -263 82 -263 69z"/>
<path d="M7640 4699 c-14 -6 -137 -44 -275 -85 -324 -98 -498 -154 -509 -165
-16 -14 31 -11 222 16 97 13 233 31 302 40 69 9 173 23 233 32 107 16 107 16
107 44 0 15 -5 51 -11 79 -11 53 -20 58 -69 39z"/>
<path d="M1655 4688 c-9 -26 -25 -104 -25 -124 0 -20 11 -23 138 -43 111 -18
433 -66 645 -96 99 -14 4 24 -357 145 -214 71 -390 130 -393 130 -2 0 -6 -6
-8 -12z"/>
<path d="M2897 4661 c-70 -54 -121 -137 -58 -92 32 23 116 119 109 126 -2 2
-25 -13 -51 -34z"/>
<path d="M3160 4504 c-246 -41 -280 -49 -280 -64 0 -25 216 -29 410 -7 74 9
170 19 214 22 43 4 74 10 70 15 -5 4 -34 15 -64 25 -30 10 -66 25 -80 34 -24
16 -38 15 -270 -25z"/>
<path d="M5617 4499 c-4 -30 -7 -67 -7 -83 l0 -29 143 7 c78 4 225 14 327 22
102 7 220 14 262 14 42 0 79 4 82 9 10 15 -75 29 -404 66 -173 20 -333 39
-356 42 l-41 5 -6 -53z"/>
<path d="M7705 4534 c-9 -3 -117 -18 -620 -85 -228 -30 -228 -30 -217 -41 7
-7 158 -11 439 -12 l428 -1 -3 65 c-3 65 -9 80 -27 74z"/>
<path d="M1627 4523 c-3 -4 -7 -39 -8 -78 l-4 -70 80 0 c294 2 743 20 733 31
-3 2 -90 15 -194 29 -207 28 -559 83 -586 91 -9 3 -18 1 -21 -3z"/>
<path d="M3865 4430 c-3 -11 -3 -30 0 -41 7 -21 12 -21 106 -17 55 3 102 1
105 -4 3 -4 23 -8 45 -8 l39 0 0 45 0 45 -144 0 c-136 0 -145 -1 -151 -20z"/>
<path d="M3356 4425 c-60 -8 -113 -18 -118 -23 -9 -9 191 -22 344 -22 l78 0 0
30 0 30 -97 -1 c-54 -1 -147 -7 -207 -14z"/>
<path d="M6240 4409 c-106 -8 -589 -39 -616 -39 -15 0 -16 -8 -10 -72 4 -40
11 -76 14 -80 8 -8 227 40 554 122 131 33 241 61 245 61 14 2 -51 17 -72 16
-11 0 -63 -3 -115 -8z"/>
<path d="M6860 4382 c0 -16 46 -28 330 -81 393 -74 520 -95 527 -88 3 4 8 40
11 80 l4 74 -378 6 c-209 4 -405 10 -436 13 -38 5 -58 3 -58 -4z"/>
<path d="M1990 4368 c-129 -4 -268 -10 -308 -13 l-73 -7 6 -46 c13 -98 15
-104 39 -99 11 2 194 39 406 82 212 43 389 82 395 87 11 10 -72 9 -465 -4z"/>
<path d="M6385 4373 c-11 -3 -135 -33 -275 -68 -140 -35 -302 -73 -360 -85
-58 -12 -108 -25 -112 -29 -9 -8 22 -141 33 -141 12 0 235 81 364 132 133 52
405 180 405 190 0 8 -22 9 -55 1z"/>
<path d="M4324 4346 c-16 -43 4 -49 215 -62 122 -8 133 7 18 26 -64 10 -159
31 -210 46 -10 3 -20 -1 -23 -10z"/>
<path d="M6846 4341 c5 -5 68 -30 139 -56 229 -83 517 -186 602 -215 l83 -29
21 70 c12 39 19 72 17 75 -3 2 -65 15 -139 29 -257 45 -574 106 -636 120 -71
17 -101 19 -87 6z"/>
<path d="M2220 4304 c-85 -18 -249 -52 -365 -75 -115 -23 -213 -45 -217 -48
-8 -8 35 -144 47 -148 6 -1 168 60 360 138 193 77 366 147 385 154 l35 14 -45
0 c-25 -1 -115 -16 -200 -35z"/>
<path d="M6285 4274 c-159 -74 -375 -162 -515 -209 -64 -22 -94 -37 -92 -46 8
-35 56 -129 65 -129 30 0 717 427 717 446 0 13 -50 -4 -175 -62z"/>
<path d="M2085 4170 c-203 -82 -376 -150 -382 -150 -7 0 -13 -8 -13 -17 1 -20
61 -136 72 -137 3 -1 116 68 250 153 405 257 472 301 457 300 -8 0 -180 -67
-384 -149z"/>
<path d="M6830 4312 c0 -5 60 -42 133 -82 72 -40 244 -136 380 -213 136 -77
249 -138 251 -136 9 10 66 129 66 138 0 5 -10 13 -22 17 -40 12 -457 160 -628
223 -174 64 -180 66 -180 53z"/>
<path d="M2960 4274 c99 -54 616 -284 638 -284 15 0 57 139 46 150 -18 17
-680 170 -732 170 -9 0 12 -16 48 -36z"/>
<path d="M6290 4199 c-151 -101 -270 -174 -467 -288 -40 -23 -73 -44 -73 -47
0 -11 75 -114 83 -114 22 0 396 312 550 459 80 77 99 102 80 101 -5 -1 -82
-50 -173 -111z"/>
<path d="M2854 4289 c-3 -5 0 -17 7 -25 15 -18 573 -389 636 -423 19 -10 24
-8 36 11 33 54 57 100 57 109 0 11 -14 18 -310 148 -124 54 -269 119 -322 144
-58 27 -100 42 -104 36z"/>
<path d="M6812 4291 c10 -29 667 -554 684 -547 14 6 90 114 83 120 -4 4 -478
272 -636 360 -56 31 -105 61 -108 66 -8 13 -28 13 -23 1z"/>
<path d="M2435 4267 c-43 -25 -343 -214 -542 -342 -68 -43 -123 -81 -123 -85
0 -4 18 -32 41 -64 l41 -57 46 40 c26 21 120 104 208 183 89 78 212 186 272
238 61 52 111 98 111 103 1 12 -12 8 -54 -16z"/>
<path d="M6363 4169 c-121 -115 -284 -255 -430 -368 -46 -35 -83 -68 -83 -73
0 -11 90 -108 100 -108 27 0 552 642 537 657 -3 3 -59 -46 -124 -108z"/>
<path d="M3275 4260 c28 -15 368 -99 378 -93 4 2 7 21 7 42 l0 38 -60 6 c-127
14 -346 18 -325 7z"/>
<path d="M6790 4261 c0 -9 21 -33 350 -406 96 -109 183 -208 193 -221 10 -13
24 -24 31 -24 17 0 106 88 106 105 0 7 -98 91 -217 188 -120 96 -265 214 -323
261 -112 93 -140 112 -140 97z"/>
<path d="M2313 4103 c-99 -87 -238 -209 -309 -272 -71 -62 -130 -118 -132
-125 -1 -6 22 -35 51 -64 l53 -53 262 320 c345 422 351 436 75 194z"/>
<path d="M2820 4250 c0 -5 9 -14 21 -20 11 -7 26 -24 32 -38 11 -24 339 -346
388 -380 16 -11 36 -11 122 0 l102 14 -250 165 c-137 91 -283 189 -323 217
-71 52 -92 61 -92 42z"/>
<path d="M6412 4138 c-175 -225 -249 -314 -344 -420 -54 -59 -98 -112 -98
-117 0 -11 108 -96 114 -90 45 54 215 335 333 549 110 200 105 190 93 190 -6
0 -50 -50 -98 -112z"/>
<path d="M6760 4234 c0 -8 327 -524 403 -636 33 -49 62 -88 66 -88 5 0 103 62
120 76 5 4 -37 52 -427 492 -129 144 -162 177 -162 156z"/>
<path d="M6482 4143 c-27 -49 -86 -153 -130 -233 -45 -80 -119 -203 -166 -275
-46 -71 -82 -133 -80 -137 3 -5 32 -22 65 -39 l60 -30 35 78 c101 221 292 723
274 723 -5 0 -31 -39 -58 -87z"/>
<path d="M2408 4093 c-56 -69 -128 -157 -158 -194 -30 -37 -102 -124 -159
-194 l-104 -128 24 -19 c34 -26 109 -71 113 -67 1 2 36 63 76 134 41 72 130
224 197 339 68 115 121 211 119 214 -3 2 -1 13 5 23 6 12 6 19 0 19 -5 0 -56
-57 -113 -127z"/>
<path d="M3860 4191 c0 -43 -44 -208 -74 -275 l-26 -59 42 6 c24 4 125 16 226
29 100 12 182 25 181 28 0 3 -26 24 -58 47 -47 33 -65 54 -91 106 -35 72 -36
97 -2 112 12 5 22 13 22 16 0 11 -59 19 -141 19 l-79 0 0 -29z"/>
<path d="M6560 4209 c0 -18 -169 -457 -241 -624 -51 -117 -65 -161 -56 -167 6
-4 36 -16 65 -25 38 -12 55 -14 63 -6 15 15 101 366 149 608 44 219 45 225 30
225 -5 0 -10 -5 -10 -11z"/>
<path d="M6739 4198 c21 -54 244 -563 290 -661 l50 -108 61 31 c33 17 60 35
60 41 0 6 -55 96 -122 200 -68 104 -152 235 -187 291 -113 180 -145 228 -153
228 -4 0 -4 -10 1 -22z"/>
<path d="M6700 4200 c0 -16 147 -593 182 -712 24 -87 34 -108 49 -108 18 0
129 38 129 44 0 2 -35 82 -79 177 -43 96 -111 251 -151 344 -97 227 -130 292
-130 255z"/>
<path d="M6595 4178 c-3 -13 -21 -102 -40 -198 -19 -96 -58 -271 -87 -387 -36
-146 -49 -216 -42 -223 6 -6 40 -13 77 -17 56 -5 67 -3 67 9 0 9 7 80 15 159
30 297 44 679 25 679 -5 0 -12 -10 -15 -22z"/>
<path d="M6637 4155 c-4 -26 -7 -105 -7 -174 0 -69 -7 -207 -15 -306 -9 -99
-18 -215 -22 -258 l-6 -78 74 3 74 3 -2 30 c-41 500 -70 790 -83 814 -4 8 -10
-5 -13 -34z"/>
<path d="M6674 4163 c9 -61 33 -300 56 -558 12 -132 25 -244 30 -249 12 -12
120 3 126 18 3 8 -13 80 -35 161 -53 191 -161 629 -161 649 0 9 -5 16 -11 16
-7 0 -9 -14 -5 -37z"/>
<path d="M2540 4163 c-8 -2 -39 -48 -69 -101 -30 -53 -98 -171 -151 -262 -129
-219 -180 -310 -180 -321 0 -5 27 -23 61 -40 58 -29 89 -32 89 -9 0 6 44 124
98 263 106 270 177 466 171 471 -2 1 -11 1 -19 -1z"/>
<path d="M2583 4158 c-7 -8 -32 -73 -56 -144 -24 -71 -83 -227 -131 -347 -48
-120 -89 -231 -92 -246 -6 -27 -4 -29 61 -45 37 -9 69 -15 71 -14 2 2 19 80
39 173 19 93 37 177 40 186 3 10 1 20 -5 24 -5 3 -10 28 -10 55 0 44 3 51 29
64 25 13 30 23 36 73 3 32 13 91 21 131 17 85 16 114 -3 90z"/>
<path d="M2606 4098 c-23 -108 -36 -191 -32 -195 6 -7 45 20 51 35 2 7 8 62
11 122 8 130 -6 148 -30 38z"/>
<path d="M4156 4151 c-11 -17 35 -90 70 -111 47 -30 87 -26 118 11 25 29 35
82 19 92 -5 3 -51 8 -104 12 -67 5 -99 4 -103 -4z"/>
<path d="M2656 4104 c-3 -26 -6 -69 -6 -95 0 -47 1 -49 20 -37 17 11 20 24 20
80 0 68 -6 98 -20 98 -4 0 -10 -21 -14 -46z"/>
<path d="M2712 4090 c0 -53 1 -54 10 -22 8 23 8 39 0 55 -9 19 -11 13 -10 -33z"/>
<path d="M2880 4113 c0 -19 31 -72 100 -168 56 -77 107 -146 114 -153 10 -10
31 -12 85 -6 39 3 70 9 69 13 -5 10 -356 341 -362 341 -3 0 -6 -12 -6 -27z"/>
<path d="M2844 4045 c-16 -24 -14 -29 44 -150 l61 -125 38 1 c21 1 50 4 65 8
26 6 26 7 -75 148 -56 78 -105 142 -109 143 -4 0 -15 -11 -24 -25z"/>
<path d="M2792 3970 l-22 -29 36 -91 36 -90 44 0 c24 0 44 5 44 10 0 11 -108
230 -113 230 -2 0 -13 -13 -25 -30z"/>
<path d="M2736 3895 c-11 -17 -16 -41 -14 -67 3 -41 4 -42 51 -54 26 -6 47 -9
47 -6 0 14 -55 152 -61 152 -4 0 -14 -11 -23 -25z"/>
<path d="M2683 3838 c-28 -30 -29 -44 -2 -51 23 -6 32 9 27 48 l-3 27 -22 -24z"/>
<path d="M3393 3786 c-39 -6 -74 -14 -78 -17 -3 -4 17 -24 46 -45 l52 -38 39
44 c39 46 48 71 26 69 -7 -1 -45 -7 -85 -13z"/>
<path d="M3177 3763 c-27 -2 -47 -9 -45 -14 7 -20 133 -188 141 -189 10 0 127
110 127 119 0 3 -26 25 -57 49 -58 44 -56 43 -166 35z"/>
<path d="M2994 3742 c-14 -8 123 -272 141 -272 23 0 116 72 111 85 -3 8 -35
55 -72 105 l-67 90 -51 0 c-28 0 -56 -4 -62 -8z"/>
<path d="M2893 3733 c-18 -2 -33 -8 -33 -13 0 -23 114 -320 123 -320 16 0 127
52 127 60 0 7 -101 198 -132 248 -11 17 -27 31 -36 30 -9 0 -32 -3 -49 -5z"/>
<path d="M2785 3709 c-16 -10 -33 -20 -37 -21 -5 -3 53 -290 66 -325 4 -9 22
-7 71 6 36 10 68 20 70 22 5 5 -78 238 -105 297 -11 23 -23 42 -27 41 -5 0
-21 -9 -38 -20z"/>
<path d="M2522 3688 c-18 -68 -66 -328 -61 -333 3 -3 40 -8 82 -11 l77 -7 0
177 0 177 -30 6 c-17 3 -33 10 -36 14 -11 18 -23 8 -32 -23z"/>
<path d="M2647 3683 c-4 -3 -7 -82 -7 -175 l0 -168 68 0 c37 0 72 4 79 8 8 5
2 52 -25 175 l-36 167 -36 0 c-20 0 -40 -3 -43 -7z"/>
<path d="M1540 2586 c0 -52 3 -64 18 -68 38 -10 368 -2 394 9 53 24 44 83 -17
109 -25 10 -82 14 -215 14 l-180 0 0 -64z"/>
<path d="M1540 2251 l0 -71 183 1 c198 1 249 10 278 49 21 28 16 64 -9 76 -10
4 -115 9 -234 12 l-218 4 0 -71z"/>
<path d="M4664 1367 c-2 -7 -3 -111 -2 -232 l3 -220 38 -3 c72 -6 145 16 186
57 123 123 74 360 -82 399 -62 16 -136 15 -143 -1z"/>
<path d="M2130 1039 c-77 -35 -100 -55 -100 -84 0 -55 80 -73 141 -32 31 20
34 28 37 76 2 30 0 57 -5 62 -4 4 -37 -6 -73 -22z"/>
<path d="M3262 1204 c-22 -15 -52 -63 -52 -84 0 -6 41 -10 115 -10 63 0 115 4
115 9 0 29 -26 74 -51 86 -37 19 -99 19 -127 -1z"/>
<path d="M5261 1193 c-17 -16 -33 -40 -37 -55 l-6 -28 111 0 c106 0 111 1 111
21 0 79 -117 119 -179 62z"/>
<path d="M6652 1204 c-22 -15 -52 -63 -52 -84 0 -6 41 -10 115 -10 97 0 115 2
115 15 0 25 -28 73 -49 85 -29 15 -104 12 -129 -6z"/>
</g>
</svg>
